<svg id="visual" viewBox="0 0 900 900" width="900" height="900" xmlns="http://www.w3.org/2000/svg" xmlns:xlink="http://www.w3.org/1999/xlink" version="1.1"><rect x="0" y="0" width="900" height="900" fill="transparent"></rect><path d="M0 480L25 481.8C50 483.7 100 487.3 150 476C200 464.7 250 438.3 300 431C350 423.7 400 435.3 450 448C500 460.7 550 474.3 600 478.2C650 482 700 476 750 463.7C800 451.3 850 432.7 875 423.3L900 414L900 0L875 0C850 0 800 0 750 0C700 0 650 0 600 0C550 0 500 0 450 0C400 0 350 0 300 0C250 0 200 0 150 0C100 0 50 0 25 0L0 0Z" fill="#F2E3C6" stroke-linecap="round" stroke-linejoin="miter"></path></svg>