<svg width="16" height="15" viewBox="0 0 16 15" fill="none" xmlns="http://www.w3.org/2000/svg">
<path d="M13.8595 10.2539C13.8059 10.2844 13.7469 10.3041 13.6857 10.3118C13.6246 10.3195 13.5625 10.315 13.5031 10.2987C13.4437 10.2824 13.388 10.2545 13.3394 10.2166C13.2908 10.1788 13.2501 10.1317 13.2196 10.0781L12.1063 8.13279C11.4591 8.57042 10.7451 8.90009 9.99228 9.10897L10.3362 11.1726C10.3464 11.2334 10.3444 11.2955 10.3306 11.3556C10.3167 11.4156 10.2911 11.4722 10.2553 11.5224C10.2195 11.5725 10.1742 11.6151 10.1219 11.6476C10.0696 11.6802 10.0114 11.7022 9.95068 11.7123C9.92569 11.7164 9.90042 11.7185 9.87509 11.7187C9.7642 11.7186 9.65696 11.6791 9.57242 11.6073C9.48789 11.5355 9.43153 11.4361 9.41337 11.3267L9.07529 9.30057C8.36232 9.39978 7.63904 9.39978 6.92607 9.30057L6.58798 11.3267C6.56979 11.4363 6.51327 11.5359 6.42849 11.6077C6.34371 11.6795 6.23619 11.7188 6.12509 11.7187C6.09918 11.7186 6.07332 11.7165 6.04775 11.7123C5.98699 11.7022 5.92881 11.6802 5.87654 11.6476C5.82427 11.6151 5.77894 11.5725 5.74314 11.5224C5.70733 11.4722 5.68175 11.4156 5.66787 11.3556C5.65398 11.2955 5.65205 11.2334 5.6622 11.1726L6.00791 9.10897C5.25534 8.89943 4.54177 8.56916 3.89501 8.13104L2.78525 10.0781C2.72309 10.1864 2.62045 10.2656 2.4999 10.2982C2.37936 10.3309 2.25079 10.3143 2.14248 10.2521C2.03416 10.19 1.95498 10.0873 1.92234 9.96678C1.8897 9.84624 1.90629 9.71767 1.96845 9.60936L3.14033 7.55857C2.72871 7.20296 2.3502 6.81072 2.00947 6.3867C1.96697 6.33925 1.9346 6.28365 1.91431 6.22327C1.89402 6.1629 1.88625 6.09903 1.89147 6.03555C1.89669 5.97207 1.91479 5.91032 1.94467 5.85407C1.97455 5.79783 2.01557 5.74826 2.06524 5.70839C2.11492 5.66852 2.17219 5.6392 2.23358 5.62221C2.29496 5.60521 2.35916 5.60091 2.42226 5.60955C2.48536 5.6182 2.54604 5.63961 2.60059 5.67248C2.65514 5.70536 2.70242 5.74901 2.73955 5.80076C3.7122 7.00428 5.41376 8.43748 8.00009 8.43748C10.5864 8.43748 12.288 7.00252 13.2606 5.80076C13.2973 5.74795 13.3445 5.70325 13.3992 5.66945C13.4539 5.63565 13.515 5.61347 13.5787 5.60429C13.6423 5.59511 13.7072 5.59912 13.7692 5.61609C13.8313 5.63305 13.8891 5.6626 13.9393 5.70289C13.9894 5.74319 14.0307 5.79336 14.0606 5.8503C14.0905 5.90724 14.1084 5.96973 14.1131 6.03387C14.1178 6.09801 14.1093 6.16243 14.088 6.22313C14.0668 6.28383 14.0332 6.33951 13.9895 6.3867C13.6488 6.81072 13.2703 7.20296 12.8587 7.55857L14.0306 9.60936C14.062 9.66281 14.0826 9.72198 14.091 9.78344C14.0994 9.84489 14.0955 9.9074 14.0796 9.96736C14.0637 10.0273 14.0361 10.0835 13.9983 10.1327C13.9605 10.1819 13.9133 10.2231 13.8595 10.2539Z" fill="#2B2B2B"/>
</svg>
