<svg width="29" height="20" viewBox="0 0 29 20" fill="none" xmlns="http://www.w3.org/2000/svg">
<g filter="url(#filter0_d_123_375)">
<path d="M18.7911 0.904053C17.9584 0.904053 17.1371 1.09793 16.3923 1.47033C15.6475 1.84274 14.9996 2.38343 14.5 3.04961C13.8245 2.14898 12.8828 1.48371 11.8082 1.14804C10.7336 0.812364 9.58069 0.823305 8.51268 1.17931C7.44466 1.53532 6.51574 2.21834 5.85748 3.13162C5.19922 4.04491 4.845 5.14216 4.845 6.26794C4.845 12.6957 13.7759 17.7645 14.1513 17.9791C14.2577 18.0389 14.378 18.0697 14.5 18.0685C14.6221 18.0706 14.7426 18.0397 14.8487 17.9791C16.4933 17.0176 18.0359 15.8914 19.4527 14.6177C22.5727 11.8106 24.155 9.00353 24.155 6.26794C24.155 4.84535 23.5899 3.48102 22.584 2.4751C21.578 1.46918 20.2137 0.904053 18.7911 0.904053Z" fill="#E04848"/>
</g>
<defs>
<filter id="filter0_d_123_375" x="0.845001" y="0.904053" width="27.31" height="25.1646" filterUnits="userSpaceOnUse" color-interpolation-filters="sRGB">
<feFlood flood-opacity="0" result="BackgroundImageFix"/>
<feColorMatrix in="SourceAlpha" type="matrix" values="0 0 0 0 0 0 0 0 0 0 0 0 0 0 0 0 0 0 127 0" result="hardAlpha"/>
<feOffset dy="4"/>
<feGaussianBlur stdDeviation="2"/>
<feComposite in2="hardAlpha" operator="out"/>
<feColorMatrix type="matrix" values="0 0 0 0 0 0 0 0 0 0 0 0 0 0 0 0 0 0 0.25 0"/>
<feBlend mode="normal" in2="BackgroundImageFix" result="effect1_dropShadow_123_375"/>
<feBlend mode="normal" in="SourceGraphic" in2="effect1_dropShadow_123_375" result="shape"/>
</filter>
</defs>
</svg>
