<svg width="30" height="26" viewBox="0 0 30 26" fill="none" xmlns="http://www.w3.org/2000/svg">
<g clip-path="url(#clip0_123_361)">
<path d="M0.744995 3.98223V6.37157C0.744995 7.25263 1.4528 7.96446 2.32888 7.96446H3.12083H5.49666V3.98223C5.49666 2.66312 4.43249 1.5929 3.12083 1.5929C1.80917 1.5929 0.744995 2.66312 0.744995 3.98223ZM6.28861 1.5929C6.78357 2.25992 7.08055 3.08623 7.08055 3.98223V19.1147C7.08055 20.8718 8.5011 22.3005 10.2483 22.3005C11.9956 22.3005 13.4161 20.8718 13.4161 19.1147V18.8509C13.4161 17.2381 14.7179 15.9289 16.3216 15.9289H24.5033V6.37157C24.5033 3.73334 22.375 1.5929 19.7517 1.5929H6.28861ZM23.7114 23.8934C26.7752 23.8934 29.255 21.3995 29.255 18.3182C29.255 17.8802 28.8986 17.5218 28.4631 17.5218H16.3216C15.594 17.5218 15 18.1142 15 18.8509V19.1147C15 21.7529 12.8716 23.8934 10.2483 23.8934H18.9597H23.7114Z" fill="#F7F7F7"/>
</g>
<defs>
<clipPath id="clip0_123_361">
<rect width="28.51" height="25.4862" fill="white" transform="translate(0.744995)"/>
</clipPath>
</defs>
</svg>
