<svg width="22" height="36" viewBox="0 0 22 36" fill="none" xmlns="http://www.w3.org/2000/svg">
<g clip-path="url(#clip0_131_648)">
<path d="M21.3537 10.7538C22.2131 9.8944 22.2131 8.49878 21.3537 7.6394C20.4944 6.78003 19.0987 6.78003 18.2394 7.6394L11 14.8857L3.75375 7.64628C2.89437 6.7869 1.49875 6.7869 0.639373 7.64628C-0.220001 8.50565 -0.220001 9.90128 0.639373 10.7607L7.88562 18L0.646248 25.2463C-0.213126 26.1056 -0.213126 27.5013 0.646248 28.3606C1.50562 29.22 2.90125 29.22 3.76062 28.3606L11 21.1144L18.2462 28.3538C19.1056 29.2131 20.5012 29.2131 21.3606 28.3538C22.22 27.4944 22.22 26.0988 21.3606 25.2394L14.1144 18L21.3537 10.7538Z" fill="#E04848"/>
</g>
<defs>
<clipPath id="clip0_131_648">
<rect width="22" height="35.2" fill="white" transform="translate(0 0.400024)"/>
</clipPath>
</defs>
</svg>
